<?xml version="1.0" encoding="utf-8"?>
<!-- Generator: Adobe Illustrator 24.0.1, SVG Export Plug-In . SVG Version: 6.00 Build 0)  -->
<svg version="1.1" xmlns="http://www.w3.org/2000/svg" xmlns:xlink="http://www.w3.org/1999/xlink" x="0px" y="0px"
	 viewBox="0 0 170.4 53.2" style="enable-background:new 0 0 170.4 53.2;" xml:space="preserve">
<style type="text/css">
	.st0{fill:#00AE42;}
	.st1{fill:#3D3935;}
</style>
<g id="Layer_1">
	<g>
		<rect x="11.4" y="12.8" class="st0" width="4.9" height="24.5"/>
		<polygon class="st0" points="22,25.1 22,25.1 31.2,12.8 25.2,12.8 16.6,25.1 16.6,25.1 25.4,37.3 31.9,37.3 		"/>
		<polygon class="st0" points="53.5,11.7 48.6,12.9 48.6,37.4 53.5,37.4 		"/>
		<polygon class="st0" points="61.4,11.7 56.6,12.9 56.6,37.4 61.4,37.4 		"/>
		<polygon class="st0" points="76.7,21 72.6,31.6 68.5,21 63.5,21 70.3,37.2 66.7,45.3 71.5,45.3 74.9,37.4 81.7,21 		"/>
		<path class="st0" d="M46.2,28.9c0-4.9-3-8.2-7.5-8.2c-4.7,0-7.9,3.4-7.9,8.5c0,5.2,3.3,8.5,8.4,8.5c2.6,0,5.1-0.9,6.6-2.4l0.3-0.3
			l-2.4-2.9l-0.4,0.3c-1,0.9-2.4,1.4-4,1.4c-2.2,0-3.7-1.1-4.2-3.2h11V28.9z M35.3,27.1c0.5-1.7,1.7-2.6,3.4-2.6
			c1.6,0,2.7,0.9,3.1,2.6H35.3z"/>
		<path class="st0" d="M78.4,36.1h0.3l0.4,0.7h0.3l-0.5-0.7c0.1,0,0.2-0.1,0.3-0.1c0.1-0.1,0.1-0.2,0.1-0.3c0-0.2-0.1-0.3-0.2-0.4
			c-0.1-0.1-0.3-0.1-0.5-0.1h-0.6v1.6h0.3V36.1z M78.4,35.9v-0.5h0.3c0,0,0.1,0,0.1,0c0,0,0.1,0,0.1,0l0.1,0.1c0,0,0,0.1,0,0.1
			c0,0.1,0,0.1,0,0.1L79,35.8c0,0-0.1,0-0.1,0c0,0-0.1,0-0.1,0H78.4z M80,35.3c-0.1-0.2-0.2-0.3-0.3-0.5c-0.1-0.1-0.3-0.2-0.5-0.3
			c-0.2-0.1-0.4-0.1-0.6-0.1c-0.2,0-0.4,0-0.6,0.1c-0.2,0.1-0.3,0.2-0.5,0.3c-0.1,0.1-0.2,0.3-0.3,0.5c-0.1,0.2-0.1,0.4-0.1,0.6
			c0,0.2,0,0.4,0.1,0.6c0.1,0.2,0.2,0.3,0.3,0.5c0.1,0.1,0.3,0.2,0.5,0.3c0.2,0.1,0.4,0.1,0.6,0.1c0.2,0,0.4,0,0.6-0.1
			c0.2-0.1,0.3-0.2,0.5-0.3c0.1-0.1,0.2-0.3,0.3-0.5c0.1-0.2,0.1-0.4,0.1-0.6C80.2,35.7,80.1,35.5,80,35.3 M79.8,36.4
			c-0.1,0.1-0.1,0.3-0.2,0.4c-0.1,0.1-0.2,0.2-0.4,0.2c-0.1,0.1-0.3,0.1-0.5,0.1c-0.2,0-0.3,0-0.5-0.1c-0.1-0.1-0.3-0.1-0.4-0.3
			c-0.1-0.1-0.2-0.2-0.2-0.4c-0.1-0.1-0.1-0.3-0.1-0.5c0-0.2,0-0.3,0.1-0.5c0.1-0.1,0.1-0.3,0.2-0.4c0.1-0.1,0.2-0.2,0.4-0.2
			c0.1-0.1,0.3-0.1,0.5-0.1c0.2,0,0.3,0,0.5,0.1c0.1,0.1,0.3,0.1,0.4,0.2c0.1,0.1,0.2,0.2,0.2,0.4c0.1,0.1,0.1,0.3,0.1,0.5
			C79.8,36.1,79.8,36.3,79.8,36.4"/>
	</g>
	<g>
		<path class="st1" d="M150.8,24.1v3.7h4.2v3.2l-0.5,0.4c-0.4,0.3-1,0.6-1.8,0.9c-0.9,0.3-1.8,0.5-2.9,0.5c-2.2,0-4.1-0.7-5.5-2.2
			c-1.5-1.5-2.2-3.3-2.2-5.5s0.7-4.1,2.2-5.5c1.5-1.5,3.3-2.2,5.5-2.2c0.8,0,1.6,0.1,2.4,0.4c0.8,0.2,1.4,0.5,1.9,0.8
			c0.5,0.3,0.9,0.6,1.3,1c0.4,0.4,0.7,0.7,0.8,0.8c0.1,0.2,0.2,0.3,0.3,0.4l3.2-3.2l-0.4-0.5c-0.2-0.3-0.6-0.7-1.2-1.2
			c-0.6-0.5-1.2-0.9-1.9-1.4c-0.7-0.5-1.6-0.9-2.8-1.2c-1.1-0.3-2.3-0.5-3.5-0.5c-3.6,0-6.6,1.2-9.1,3.6c-2.5,2.4-3.7,5.3-3.7,8.7
			s1.2,6.3,3.7,8.7c2.5,2.4,5.5,3.6,9.1,3.6c1.3,0,2.5-0.2,3.6-0.5c1.2-0.3,2.1-0.7,2.9-1.1s1.4-0.9,2.1-1.4
			c0.7-0.5,1.1-0.9,1.3-1.1c0.2-0.2,0.3-0.4,0.4-0.5v-8.8H150.8z"/>
		<path class="st1" d="M126.4,12.8c-3.6,0-6.6,1.2-9.1,3.6c-2.5,2.4-3.7,5.3-3.7,8.7s1.2,6.3,3.7,8.7s5.5,3.6,9.1,3.6
			c1.2,0,2.4-0.2,3.6-0.5c1.1-0.3,2.1-0.7,2.8-1.1c0.7-0.4,1.4-0.9,2-1.4c0.6-0.5,1-0.9,1.2-1.1c0.2-0.2,0.3-0.4,0.4-0.5l-3-3.2
			l-0.3,0.3c-0.2,0.2-0.5,0.5-0.9,0.9c-0.4,0.3-0.9,0.7-1.4,1c-0.5,0.3-1.2,0.6-2,0.8c-0.8,0.2-1.6,0.4-2.5,0.4
			c-2.2,0-4.1-0.7-5.5-2.2c-1.5-1.5-2.2-3.3-2.2-5.5s0.7-4.1,2.2-5.5c1.5-1.5,3.3-2.2,5.5-2.2c0.8,0,1.6,0.1,2.4,0.4
			c0.8,0.2,1.4,0.5,1.9,0.8c0.5,0.3,0.9,0.6,1.3,1c0.4,0.4,0.7,0.7,0.8,0.8c0.1,0.2,0.2,0.3,0.3,0.4l3.2-3.2l-0.4-0.5
			c-0.2-0.3-0.6-0.7-1.2-1.2c-0.6-0.5-1.2-0.9-1.9-1.4c-0.7-0.5-1.6-0.9-2.8-1.2C128.8,13,127.7,12.8,126.4,12.8"/>
		<path class="st1" d="M108.1,16.4c-2.5-2.4-5.5-3.6-9.1-3.6c-3.6,0-6.6,1.2-9.1,3.6c-2.5,2.4-3.7,5.3-3.7,8.7
			c0,3.4,1.2,6.3,3.7,8.7c2.5,2.4,5.5,3.6,9.1,3.6c3.6,0,6.6-1.2,9.1-3.6c2.5-2.4,3.7-5.3,3.7-8.7C111.8,21.7,110.6,18.8,108.1,16.4
			z M104.4,30.7c-1.5,1.5-3.3,2.2-5.4,2.2c-2.1,0-3.9-0.7-5.4-2.2c-1.5-1.5-2.2-3.3-2.2-5.5c0-2.2,0.7-4,2.2-5.5
			c1.5-1.5,3.3-2.2,5.4-2.2c2.1,0,3.9,0.7,5.4,2.2c1.5,1.5,2.2,3.3,2.2,5.5C106.6,27.3,105.8,29.2,104.4,30.7z"/>
	</g>
</g>
<g id="Layer_2">
</g>
<g id="Layer_3">
</g>
<g id="Layer_4">
</g>
</svg>
